<?xml version="1.0" encoding="utf-8"?>
<!-- Generator: Adobe Illustrator 17.1.0, SVG Export Plug-In . SVG Version: 6.00 Build 0)  -->
<!DOCTYPE svg PUBLIC "-//W3C//DTD SVG 1.1//EN" "http://www.w3.org/Graphics/SVG/1.1/DTD/svg11.dtd">
<svg version="1.1" id="Layer_1" xmlns="http://www.w3.org/2000/svg" xmlns:xlink="http://www.w3.org/1999/xlink" x="0px" y="0px"
	 viewBox="0 0 20 20" enable-background="new 0 0 20 20" xml:space="preserve">
<g>
	<g>
		<path d="M12.5,8.8L12.5,8.8c0,0.1-0.1,0.2-0.1,0.4c-0.1,0.2-0.1,0.3-0.2,0.5l-1.6,4.2H9.2L7.5,9.6C7.4,9.5,7.4,9.3,7.3,9.1
			C7.3,8.9,7.2,8.8,7.2,8.7h0v4.2H8v1H5.4v-1H6V7.8H5.3v-1h2.6l1.8,4.8c0.1,0.1,0.1,0.3,0.2,0.4c0.1,0.2,0.1,0.3,0.1,0.5h0
			c0-0.1,0-0.2,0-0.3c0-0.1,0-0.2,0.1-0.3c0-0.1,0.1-0.2,0.1-0.3c0-0.1,0.1-0.2,0.1-0.4l1.7-4.5h2.6v1H14v5.1h0.7v1h-2.8v-1h0.6V8.8
			z"/>
	</g>
	<path d="M10,20C4.5,20,0,15.5,0,10S4.5,0,10,0s10,4.5,10,10S15.5,20,10,20z M10,0C4.5,0,0,4.5,0,10s4.5,10,10,10
		c5.5,0,10-4.5,10-10S15.5,0,10,0z"/>
	<path d="M10,19.7c-5.3,0-9.7-4.3-9.7-9.7c0-5.3,4.3-9.7,9.7-9.7c5.3,0,9.7,4.3,9.7,9.7C19.7,15.3,15.3,19.7,10,19.7z M10,0.5
		c-5.3,0-9.5,4.3-9.5,9.5c0,5.3,4.3,9.5,9.5,9.5c5.3,0,9.5-4.3,9.5-9.5C19.5,4.7,15.3,0.5,10,0.5z"/>
</g>
</svg>
